{"glyphs":{":":{"x_min":0,"x_max":107,"ha":107,"o":"m 99 427 q 95 413 84 382 q 74 351 70 337 q 46 361 46 378 q 46 401 99 427 z m 86 90 q 82 76 72 45 q 62 14 57 0 q 33 24 33 41 q 33 63 86 90 z"},"$":{"x_min":0,"x_max":433,"ha":433,"o":"m 164 329 q 170 376 182 501 q 117 478 84 459 q 69 451 58 427 q 47 403 47 386 q 47 344 92 332 q 106 328 149 328 q 153 328 164 329 z m 161 81 q 161 83 158 89 q 156 95 156 97 q 156 102 163 102 q 218 102 277 122 q 368 153 368 214 q 368 309 239 309 q 231 309 190 304 q 151 104 151 85 q 151 76 154 76 q 155 77 158 78 q 161 79 161 81 z m 415 233 q 415 175 357 137 q 315 110 243 93 q 201 85 159 77 q 157 76 154 76 q 127 67 120 29 q 104 -50 98 -68 q 88 -98 47 -200 q 47 -184 61 -103 q 78 -3 83 41 q 84 51 40 51 q -4 51 0 62 q 40 68 80 74 q 105 81 116 113 q 143 189 160 299 q 95 290 86 290 q 44 290 27 300 q 0 315 0 362 q 0 430 66 474 q 104 500 184 525 q 192 604 225 704 q 223 655 228 623 q 233 588 233 577 q 233 563 230 541 q 291 568 410 624 q 389 586 379 535 q 372 489 365 443 l 365 448 q 366 471 355 501 q 340 539 317 539 q 301 539 227 516 q 217 443 196 331 l 313 338 q 356 338 387 302 q 415 269 415 233 z"},"?":{"x_min":0,"x_max":433,"ha":433,"o":"m 48 211 q 141 260 207 309 q 366 425 366 516 q 366 534 354 558 q 343 582 329 590 q 297 608 235 608 q 199 608 150 602 q 101 595 102 595 q 68 595 56 523 q 56 510 54 499 q 53 505 56 523 q 57 608 2 652 q 41 643 104 639 q 172 636 190 632 q 231 626 272 620 q 334 609 367 585 q 412 552 412 493 q 412 347 198 246 q 185 70 185 -32 q 180 34 172 82 q 153 197 125 207 q 109 213 48 211 z m 199 -92 q 194 -106 184 -137 q 174 -168 170 -182 q 146 -158 146 -141 q 146 -118 199 -92 z"},"<":{"x_min":0,"x_max":410,"ha":410,"o":"m 398 -217 q 318 -217 264 -210 q 270 -206 290 -204 q 307 -203 314 -194 q 325 -181 325 -143 q 325 -105 298 -40 q 231 120 156 192 q 117 229 11 282 q 74 316 137 351 q 216 401 232 478 q 249 445 258 431 q 277 401 297 384 q 203 386 66 277 q 217 227 361 -131 q 374 -159 398 -217 z"},"'":{"x_min":0,"x_max":107,"ha":107,"o":"m 80 773 q 75 759 58 675 q 42 591 38 577 q 41 608 41 633 q 41 667 34 694 q 27 720 27 724 q 27 747 80 773 z"},"=":{"x_min":0,"x_max":561,"ha":561,"o":"m 503 198 q 464 205 430 205 q 343 205 270 160 q 250 188 198 205 l 61 199 q 63 192 75 183 q 87 174 87 170 l 26 170 q 19 187 -2 231 q 87 231 191 232 q 295 234 316 234 q 391 234 424 228 q 458 221 503 198 z m 515 322 q 476 329 442 329 q 355 329 282 284 q 262 312 210 329 l 73 323 q 75 316 87 307 q 99 298 99 294 l 38 294 q 31 311 10 355 q 99 355 203 356 q 307 358 328 358 q 403 358 436 352 q 470 345 515 322 z"},"a":{"x_min":0,"x_max":328,"ha":328,"o":"m 325 71 q 275 -119 269 -194 q 266 -175 266 -149 q 266 -131 268 -91 q 270 -51 270 -30 q 270 71 227 136 q 216 129 185 90 q 154 51 132 33 q 96 5 60 7 q 50 7 38 22 q 27 37 27 53 q 27 125 213 194 q 208 225 191 306 q 115 303 64 250 q 13 196 11 125 q 11 215 -3 278 q 114 285 209 361 q 206 139 325 71 z m 190 150 q 163 154 105 116 q 47 78 47 48 q 47 24 62 22 q 103 51 144 80 q 195 120 190 150 z"},"L":{"x_min":0,"x_max":368,"ha":368,"o":"m 360 113 q 347 40 324 -109 q 326 -90 326 -72 q 326 48 233 48 q 177 48 94 15 q 12 -18 0 -48 q 4 -10 27 102 q 47 200 48 252 q 49 322 49 381 q 49 505 44 578 q 38 651 38 638 q 38 637 63 666 q 92 701 112 736 q 88 666 80 423 q 71 158 46 46 q 106 49 201 72 q 281 92 360 113 z"},"3":{"x_min":0,"x_max":379,"ha":379,"o":"m 19 146 q 21 -18 30 -312 q 32 -198 35 -85 q 44 6 102 6 q 144 6 236 -60 q 329 -127 365 -128 q 371 -42 330 52 q 299 121 236 205 q 189 265 142 325 q 146 327 152 327 q 161 327 199 312 q 237 296 265 296 q 275 296 285 298 q 285 355 248 418 q 223 458 166 524 q 104 594 86 622 l 86 509 q 89 509 110 550 q 149 507 187 465 q 240 403 258 341 q 254 334 252 333 q 250 332 245 332 q 237 333 232 333 q 213 333 149 366 q 85 399 43 398 q 70 348 154 247 q 247 135 279 84 q 338 -9 337 -80 q 196 6 19 146 z"},";":{"x_min":0,"x_max":107,"ha":107,"o":"m 99 427 q 95 413 84 382 q 74 351 70 337 q 46 361 46 378 q 46 401 99 427 z m 86 90 q 82 76 66 -8 q 49 -92 44 -106 q 47 -75 47 -50 q 47 -16 40 10 q 33 37 33 41 q 33 63 86 90 z"},"J":{"x_min":0,"x_max":296,"ha":296,"o":"m 296 670 q 274 508 252 346 q 226 156 187 61 q 183 50 137 34 q 91 17 79 -9 q 52 -68 42 -150 q 33 -233 20 -259 q 27 -203 28 -144 q 29 -102 28 -38 q 27 44 27 66 q 33 66 54 62 q 75 58 86 58 q 106 58 132 66 q 164 76 170 91 q 196 148 219 310 q 251 533 266 602 q 225 583 185 564 q 135 538 112 505 q 81 460 86 388 q 83 424 74 556 q 212 561 296 670 z"},"V":{"x_min":0,"x_max":553,"ha":553,"o":"m 535 749 q 535 589 530 480 q 527 520 523 559 q 518 602 478 602 q 449 602 399 549 q 275 415 220 265 q 192 187 151 -24 q 125 101 98 227 q 60 385 0 416 q 25 450 37 469 q 59 506 72 547 q 71 358 155 85 q 194 387 469 675 q 490 701 535 749 z"},"\"":{"x_min":0,"x_max":210,"ha":210,"o":"m 74 770 q 69 756 52 672 q 36 588 32 574 q 35 605 35 630 q 35 664 28 690 q 21 717 21 721 q 21 744 74 770 z m 172 762 q 167 748 150 664 q 134 580 130 566 q 133 597 133 622 q 133 656 126 682 q 119 709 119 713 q 119 736 172 762 z"},"7":{"x_min":0,"x_max":484,"ha":484,"o":"m 471 703 q 472 673 36 521 q 36 519 42 519 q 58 519 194 550 q 331 581 365 581 q 382 581 382 575 q 384 531 321 402 q 254 265 250 234 q 247 209 200 41 q 157 -110 157 -168 q 157 -188 161 -200 q 181 -128 200 -57 q 231 33 291 84 q 283 113 283 142 q 283 222 355 357 q 436 511 449 575 q 454 598 471 703 z"},"S":{"x_min":0,"x_max":433,"ha":433,"o":"m 415 233 q 415 172 351 133 q 306 105 229 89 q 191 83 154 76 q 115 63 85 28 q 50 -13 41 -69 q 36 -100 18 -207 q 18 -65 5 89 l 2 118 q 16 99 51 99 q 61 99 80 94 q 100 89 110 89 q 167 89 250 116 q 368 153 368 214 q 368 309 239 309 q 230 309 162 300 q 95 290 86 290 q 44 290 27 300 q 0 315 0 362 q 0 421 49 462 q 84 491 149 514 q 189 527 229 541 q 290 568 410 624 q 371 554 365 443 q 368 460 356 495 q 342 539 317 539 q 299 539 218 513 q 128 484 84 459 q 69 451 58 427 q 47 403 47 386 q 47 344 92 332 q 106 328 149 328 q 158 328 230 333 q 303 338 313 338 q 356 338 387 302 q 415 269 415 233 z"},"}":{"x_min":0,"x_max":333,"ha":333,"o":"m 306 299 l 306 219 q 268 218 244 198 q 221 179 213 146 q 205 112 204 30 q 204 -51 202 -77 q 197 -118 185 -142 q 173 -167 156 -182 q 138 -197 111 -205 q 92 -210 50 -210 l 23 -210 l 23 -134 l 38 -134 q 89 -134 106 -116 q 122 -97 122 -33 q 122 89 126 122 q 134 176 158 208 q 181 241 224 259 q 168 286 145 330 q 122 374 122 479 q 122 574 120 593 q 116 625 100 638 q 84 651 38 651 l 23 651 l 23 728 l 50 728 q 98 728 120 720 q 151 709 172 684 q 192 659 198 620 q 204 582 204 494 q 205 406 213 372 q 221 339 244 320 q 268 300 306 299 z"},"Z":{"x_min":0,"x_max":541,"ha":541,"o":"m 550 269 q 518 215 512 131 q 503 -4 500 -19 q 498 15 497 50 q 493 98 480 124 q 461 158 421 158 q 370 158 207 54 q 64 -37 47 -57 q 29 -41 31 -34 q 46 4 163 346 q 244 583 318 705 q 322 710 313 719 q 255 675 196 631 q 129 576 96 523 q 53 454 53 369 q 53 344 32 289 q 25 388 22 410 q 13 477 -9 519 q 189 661 342 797 l 382 792 q 298 593 207 348 q 102 68 102 26 q 362 175 550 269 z"},"x":{"x_min":0,"x_max":288,"ha":288,"o":"m 288 323 q 230 252 168 162 q 168 144 214 79 q 252 26 276 0 q 268 -13 267 -53 q 268 -82 268 -110 q 267 -126 264 -140 q 256 8 139 130 q 117 110 84 65 q 54 26 24 -13 q 24 -2 18 22 q 11 45 3 53 q 42 87 82 123 q 122 159 122 178 q 122 196 111 229 q 101 257 91 285 l 8 202 q 4 213 4 223 q 4 254 47 284 q 99 321 105 332 q 110 310 144 208 z"},")":{"x_min":0,"x_max":195,"ha":195,"o":"m 8 916 q 75 824 106 635 q 128 500 133 300 q 136 182 139 63 q 142 25 90 -110 q 37 -249 37 -299 q 37 -322 45 -336 q 51 -280 102 -210 q 134 -166 211 -86 q 155 28 155 425 q 155 506 158 638 q 160 759 160 792 q 160 805 94 850 q 20 900 8 916 z"},"&":{"x_min":0,"x_max":479,"ha":479,"o":"m 540 -312 q 540 -349 539 -354 q 543 -365 546 -354 q 542 -344 531 -241 q 519 -186 501 -155 q 478 -120 456 -85 q 393 21 221 379 l 59 719 q 100 700 178 679 q 270 655 299 644 q 458 587 458 475 q 458 427 434 411 q 418 401 377 401 q 254 401 168 357 q 57 300 65 187 q 72 102 148 41 q 231 -25 354 -25 q 364 -25 384 -20 q 403 -15 413 -15 q 443 -15 495 30 q 490 -23 469 -132 q 448 -240 443 -296 l 428 -194 q 412 -86 311 -57 q 157 -12 73 69 q -4 143 -4 226 q -4 313 79 371 q 167 433 314 433 q 315 433 322 432 q 330 432 337 433 q 421 434 421 501 q 421 571 311 627 q 217 675 146 675 q 137 675 139 660 q 143 634 186 540 q 256 385 466 -25 l 515 -120 q 532 -154 533 -157 q 538 -253 540 -312 z"},"_":{"x_min":0,"x_max":556,"ha":556,"o":"m -15 -199 l -15 -135 l 567 -135 l 567 -199 z"},"v":{"x_min":0,"x_max":305,"ha":305,"o":"m 296 434 q 300 420 300 395 q 300 341 290 289 l 272 331 q 205 293 157 182 q 123 89 88 -3 q 47 122 11 267 q 1 252 -6 218 q -14 179 -15 176 l -46 211 q -52 236 51 370 q 54 355 66 227 q 74 135 90 74 q 109 107 145 188 q 182 275 206 317 q 247 389 296 434 z"},"O":{"x_min":0,"x_max":336,"ha":336,"o":"m 332 447 q 332 400 309 301 q 280 179 240 101 q 187 0 124 0 q 55 0 25 117 q 10 180 10 239 q 10 272 30 360 q 55 475 92 547 q 141 644 202 644 q 272 644 307 569 q 332 515 332 447 z m 290 421 q 290 603 223 603 q 180 603 138 516 q 107 451 82 350 q 62 268 62 244 q 62 186 78 125 q 100 42 140 42 q 214 42 259 220 q 290 344 290 421 z"},"(":{"x_min":0,"x_max":195,"ha":195,"o":"m 211 916 q 144 824 113 635 q 91 500 86 300 q 83 182 80 63 q 77 25 129 -110 q 182 -249 182 -299 q 182 -322 174 -336 q 168 -280 117 -210 q 85 -166 8 -86 q 64 28 64 425 q 64 506 61 638 q 59 759 59 792 q 59 805 125 850 q 199 900 211 916 z"},"C":{"x_min":0,"x_max":400,"ha":400,"o":"m 385 -14 q 376 25 367 65 q 346 130 310 130 q 291 130 189 27 q 107 -57 25 -141 l 10 18 l 16 209 q 14 233 29 367 q 47 518 66 607 q 73 636 96 655 q 120 674 149 674 q 188 674 230 634 q 272 595 270 570 l 270 303 q 242 406 207 469 q 217 492 228 516 q 238 539 238 557 q 238 608 143 649 q 77 577 56 283 q 50 197 47 -80 q 145 38 213 102 q 249 135 354 217 q 373 180 385 -14 z"},"W":{"x_min":0,"x_max":690,"ha":690,"o":"m 688 789 l 662 563 q 659 569 657 611 q 656 644 644 643 q 629 640 621 630 q 613 620 605 610 q 486 470 430 229 q 407 133 372 -158 q 340 -62 312 77 q 262 321 254 358 q 202 276 187 180 q 184 160 175 2 q 137 91 120 231 q 107 356 94 480 q 39 423 31 339 q 30 273 30 208 q 12 276 -22 394 q 12 405 58 468 q 94 521 129 574 q 139 345 160 220 q 190 285 255 475 q 303 213 358 2 q 368 32 368 100 q 369 251 465 445 q 547 612 688 789 z"},"A":{"x_min":0,"x_max":399,"ha":399,"o":"m 572 481 q 468 457 280 413 q 287 390 328 299 q 361 223 361 207 q 361 190 331 21 q 289 -220 284 -247 q 301 -141 301 43 q 301 39 307 101 q 313 157 310 202 q 305 284 285 342 q 263 408 229 408 q 171 408 143 285 q 122 196 117 45 q 116 -36 115 -117 l 89 -143 q 89 31 81 115 q 80 131 66 176 q 51 221 51 236 q 51 256 80 297 q 108 338 105 386 q 68 372 -15 317 q -15 324 -18 342 q -20 361 -20 371 q -20 386 -15 396 q 24 393 69 402 q 123 413 140 435 q 173 479 197 573 q 226 688 235 709 q 243 646 251 582 q 261 505 275 455 q 317 461 419 468 q 528 476 572 481 z m 225 437 q 232 451 232 469 q 232 487 225 510 q 221 522 217 535 q 217 519 203 485 q 189 451 192 441 z"},"f":{"x_min":0,"x_max":283,"ha":283,"o":"m 315 537 l 296 501 q 220 496 189 477 q 164 462 164 431 q 164 416 172 378 q 181 340 181 317 q 181 307 174 278 q 167 246 165 234 q 154 127 164 -157 q 149 -52 134 2 q 109 90 69 122 q 112 176 135 259 q 155 329 155 394 q 155 416 140 468 q 81 452 72 449 q 25 429 22 394 q 15 419 0 461 q 8 462 130 490 q 132 499 132 518 q 132 532 130 576 q 128 621 128 646 q 128 762 172 765 q 196 767 210 733 q 217 713 223 693 l 211 550 q 211 618 174 685 q 178 699 189 729 q 179 737 172 737 q 151 737 147 688 q 146 682 146 627 q 146 575 162 506 q 186 506 235 518 q 299 534 315 537 z"},"Q":{"x_min":0,"x_max":293,"ha":293,"o":"m 281 355 q 281 332 271 266 q 259 185 245 143 q 241 133 218 102 q 198 76 198 66 q 198 51 222 22 q 247 -8 273 -26 q 258 -83 244 -140 q 227 -211 224 -255 q 223 -245 223 -206 l 223 -193 q 223 -11 185 41 q 107 0 91 0 q 17 0 17 169 q 17 246 49 377 q 96 570 178 570 q 242 570 268 469 q 281 416 281 355 z m 265 339 q 265 394 254 443 q 235 537 186 537 q 121 537 83 384 q 58 281 58 215 q 58 145 64 121 q 78 71 128 41 q 165 60 165 83 l 132 153 q 138 177 156 215 q 172 174 193 99 q 221 128 244 211 q 265 286 265 339 z"},"w":{"x_min":0,"x_max":311,"ha":311,"o":"m 425 492 q 425 435 418 402 q 319 367 258 216 q 210 96 207 -26 q 191 19 171 101 q 145 205 137 233 q 122 202 91 124 q 57 38 38 -1 q 32 42 26 135 q 19 228 12 271 q -4 256 -23 220 q -37 190 -52 159 q -78 177 -78 215 q -78 244 -46 273 q -2 308 42 344 q 42 173 53 97 q 63 118 81 178 q 99 237 114 264 q 137 306 172 319 q 175 270 178 221 q 182 160 194 122 q 211 177 282 296 q 363 434 425 492 z"},"-":{"x_min":0,"x_max":561,"ha":561,"o":"m 515 322 q 476 329 442 329 q 355 329 282 284 q 262 312 210 329 l 73 323 q 75 316 87 307 q 99 298 99 294 l 38 294 q 31 311 10 355 q 99 355 203 356 q 307 358 328 358 q 403 358 436 352 q 470 345 515 322 z"},"E":{"x_min":0,"x_max":573,"ha":573,"o":"m 577 228 q 573 191 570 48 q 566 -95 559 -153 q 558 -143 555 -17 q 553 50 534 77 q 509 112 438 112 q 369 112 215 56 q 61 1 0 0 q -1 10 -1 19 q -1 87 69 161 q 121 215 223 282 q 298 330 372 377 q 365 379 356 379 q 341 379 278 366 q 214 354 166 354 q 150 354 133 355 q 133 403 196 455 q 237 488 333 543 q 435 602 466 625 l 466 531 q 460 531 426 565 q 361 530 296 494 q 209 443 179 391 q 185 385 188 384 q 192 383 200 383 q 213 384 222 384 q 254 384 360 412 q 467 439 536 438 q 492 397 352 312 q 198 219 143 177 q 45 99 47 40 q 281 111 577 228 z"},"s":{"x_min":0,"x_max":299,"ha":299,"o":"m 287 92 q 287 70 253 36 q 213 -3 169 -3 q 157 -3 145 0 q 128 3 114 3 q 66 3 43 -39 q 35 -52 3 -151 l 3 84 q 29 62 79 48 q 121 37 151 37 q 202 37 249 69 q 252 133 217 149 q 208 153 131 158 q 64 163 19 197 q 18 208 18 218 q 18 273 67 301 q 92 316 170 335 q 237 352 258 373 q 246 336 222 242 q 205 293 164 293 q 132 293 100 277 q 67 261 51 236 q 82 193 147 181 q 195 173 243 165 q 287 149 287 92 z"},">":{"x_min":0,"x_max":410,"ha":410,"o":"m 2 702 q 82 702 136 695 q 129 690 110 689 q 92 688 85 679 q 75 665 75 628 q 75 590 102 525 q 168 364 243 293 q 283 256 388 203 q 325 168 263 133 q 183 84 168 6 q 151 39 142 54 q 123 83 102 100 q 197 98 333 208 q 182 258 38 616 q 26 644 2 702 z"},"l":{"x_min":0,"x_max":161,"ha":161,"o":"m 131 711 q 113 632 100 486 q 92 368 83 250 q 81 220 89 113 q 98 -8 98 -62 q 98 -150 80 -183 q 76 -112 72 -40 q 60 50 11 101 q 64 209 64 366 q 64 403 60 484 q 57 560 57 602 q 57 617 84 653 q 108 682 131 711 z"},"8":{"x_min":0,"x_max":433,"ha":433,"o":"m 415 233 q 415 172 351 126 q 304 92 228 68 q 190 58 152 48 q 107 33 80 33 q 37 33 37 69 q 37 137 163 288 q 284 433 395 509 q 399 503 246 316 q 89 124 87 113 q 86 107 86 103 q 86 89 110 89 q 167 89 250 116 q 368 153 368 214 q 368 309 239 309 q 230 309 162 300 q 95 290 86 290 q 44 290 27 300 q 0 315 0 362 q 0 421 49 462 q 84 491 149 514 q 189 527 229 541 q 275 563 433 563 q 394 494 308 378 q 322 407 336 437 q 363 494 363 516 q 363 530 352 530 q 329 530 236 509 q 126 483 84 459 q 69 451 58 427 q 47 403 47 386 q 47 344 92 332 q 106 328 149 328 q 158 328 230 333 q 303 338 313 338 q 356 338 387 302 q 415 269 415 233 z"},"\\":{"x_min":0,"x_max":290,"ha":290,"o":"m 249 -30 q 198 163 146 356 q 59 648 -1 680 q 24 714 35 732 q 58 770 71 811 q 70 728 144 514 q 197 362 251 209 l 228 143 z"},"e":{"x_min":0,"x_max":338,"ha":338,"o":"m 327 -67 q 318 -106 289 -180 q 301 -119 308 -95 l 313 -19 l 308 23 q 306 41 289 42 q 285 42 274 41 q 262 40 254 40 q 228 40 104 -23 q 104 139 116 229 q 111 223 111 225 l 111 224 q 111 229 107 225 q 109 225 108 229 q 105 228 98 229 q 35 236 14 123 q 9 92 5 43 l 4 13 q 3 0 2 -4 l 11 -5 l -5 242 q 15 249 116 258 q 129 296 137 312 q 149 342 164 364 q 170 366 176 366 q 217 366 254 244 q 177 242 146 211 q 136 184 135 140 q 134 103 134 66 q 132 39 124 8 q 171 32 232 73 q 262 94 320 132 q 334 94 334 25 q 334 -35 327 -67 z m 204 306 q 192 328 170 339 q 150 277 150 255 l 226 261 q 219 277 204 306 z"},"b":{"x_min":0,"x_max":315,"ha":315,"o":"m 299 311 q 295 230 244 144 q 194 58 114 0 q 106 63 106 149 q 106 202 110 311 q 115 420 115 472 q 59 415 26 279 q 9 323 7 403 q 83 464 157 557 q 146 496 141 406 q 135 292 132 269 l 129 202 q 135 207 156 240 q 178 273 198 290 q 229 315 267 315 q 283 315 299 311 z m 264 288 q 212 280 170 220 q 131 166 131 121 q 131 109 138 84 q 144 58 144 50 q 207 135 224 164 q 262 230 264 288 z"},"%":{"x_min":0,"x_max":404,"ha":404,"o":"m 184 71 q 192 65 200 59 q 192 66 184 71 z m 389 316 q 390 313 390 301 q 390 215 363 131 q 323 8 245 8 q 197 8 180 74 q 144 98 111 98 q 66 98 23 52 q -4 16 -31 -20 q -34 19 68 179 q 188 369 189 372 q 225 446 289 596 q 294 608 254 624 q 221 637 187 650 q 192 645 203 635 q 204 632 204 620 q 204 534 177 450 q 137 327 59 327 q -14 327 -14 469 q -14 528 15 587 q 57 673 136 673 q 156 673 170 664 q 170 666 170 667 q 205 665 252 650 q 300 636 309 635 q 322 637 336 641 q 369 650 404 670 q 380 637 333 573 q 268 489 219 398 q 144 261 144 172 q 144 111 180 76 q 172 107 172 150 q 172 209 201 268 q 243 354 322 354 q 343 354 358 344 q 363 340 389 316 z m 180 556 q 180 574 172 602 q 165 631 165 634 q 77 626 37 560 q 10 516 10 462 q 10 372 67 364 q 107 391 144 454 q 180 517 180 556 z m 366 237 q 366 255 358 284 q 351 312 351 315 q 263 307 223 241 q 196 197 196 143 q 196 53 253 45 q 293 72 330 135 q 366 198 366 237 z m 714 570 z"},"m":{"x_min":0,"x_max":445,"ha":445,"o":"m 420 -246 q 415 -232 396 -135 q 381 -61 350 -27 q 350 -29 375 32 q 400 93 400 117 q 400 171 382 224 q 262 156 262 38 q 262 5 274 -62 q 285 -130 285 -164 q 285 -177 284 -189 q 266 -169 257 -124 q 245 -57 240 -43 q 224 4 188 36 q 200 43 220 68 q 241 93 251 112 l 240 253 q 106 158 106 14 q 106 -16 115 -99 q 122 -174 120 -221 q 108 -172 96 -122 q 80 -66 38 -28 q 61 7 91 126 l 90 265 q 65 242 40 220 q 15 195 9 166 q 9 169 -2 190 q -12 210 -12 224 q 11 232 52 262 q 86 288 120 314 q 130 299 130 270 q 130 262 129 244 q 128 225 128 215 q 128 193 132 177 q 147 191 193 239 q 239 287 258 307 q 272 286 275 248 q 278 202 282 189 q 323 216 408 301 q 407 299 405 295 q 405 306 409 265 q 413 217 415 119 q 419 -20 420 -246 z"},"#":{"x_min":0,"x_max":561,"ha":561,"o":"m 234 314 l 234 232 l 323 232 l 323 324 l 259 325 q 247 320 234 314 z m 233 555 q 233 484 234 356 l 308 356 q 293 383 278 394 q 324 467 324 553 q 324 587 317 626 q 342 576 350 495 q 355 452 355 356 l 574 355 q 564 333 545 294 l 485 294 q 485 298 497 307 q 509 316 511 323 l 355 324 q 355 282 355 232 q 447 231 489 227 q 568 219 617 194 q 578 201 544 201 q 458 201 385 155 q 376 168 355 181 l 354 7 q 332 17 293 35 l 293 96 q 297 96 306 84 q 315 72 322 70 l 323 197 q 317 199 312 201 l 234 200 q 233 107 229 64 q 221 -15 196 -64 q 203 -25 203 9 q 203 95 157 168 q 170 177 184 200 l 61 199 q 63 192 75 183 q 87 174 87 170 l 26 170 q 19 187 -2 231 q 68 231 200 232 q 201 236 203 240 l 202 294 q 192 286 187 279 q 114 325 28 325 q -6 325 -45 318 q 26 353 202 356 l 201 492 q 194 490 185 478 q 176 466 172 466 l 172 526 q 189 534 233 555 z"},",":{"x_min":0,"x_max":107,"ha":107,"o":"m 86 90 q 82 76 66 -8 q 49 -92 44 -106 q 47 -75 47 -50 q 47 -16 40 10 q 33 37 33 41 q 33 63 86 90 z"},"n":{"x_min":0,"x_max":287,"ha":287,"o":"m 268 310 q 268 326 270 274 q 272 221 272 122 q 272 -18 266 -242 q 249 -175 232 -107 q 211 -23 185 -9 q 202 12 230 59 q 240 85 242 134 q 244 203 249 238 q 155 216 122 136 q 101 83 99 -29 q 97 -153 87 -193 q 79 -145 71 -96 q 57 -39 8 0 q 45 4 63 31 q 74 49 83 86 q 92 124 100 134 l 90 262 q 53 240 30 169 q 22 171 2 260 q 37 279 108 310 q 115 296 120 258 q 126 208 132 187 q 202 263 268 310 z"},"h":{"x_min":0,"x_max":294,"ha":294,"o":"m 286 -213 q 268 -170 240 -86 q 205 17 194 49 q 192 55 208 65 q 228 79 233 86 q 258 118 258 185 q 258 242 240 314 q 93 204 93 -2 q 93 -42 99 -112 q 105 -181 105 -206 l 105 -267 q 88 -170 72 -74 q 51 43 32 61 q 52 82 82 128 q 107 186 107 303 q 107 326 97 446 q 87 574 80 634 q 63 588 46 486 q 30 390 26 324 q 26 345 18 446 q 10 547 10 559 q 10 613 38 637 q 104 693 125 720 q 125 583 136 238 q 213 341 277 377 q 273 346 273 297 q 273 276 275 189 q 277 121 275 82 q 275 67 269 15 q 265 -28 265 -58 q 265 -131 286 -213 z"},"z":{"x_min":0,"x_max":294,"ha":294,"o":"m 267 78 q 267 12 176 -178 q 84 -368 84 -438 q 84 -449 87 -468 q 90 -487 90 -498 q 90 -540 73 -627 q 51 -446 18 -268 q 86 -248 149 -130 q 207 -20 207 61 q 199 58 139 30 q 89 5 56 0 q 117 88 121 94 q 153 147 155 187 q 157 189 157 191 q 157 197 136 197 q 123 197 80 159 q 36 121 22 97 l 6 195 q 42 195 105 215 q 184 240 209 244 q 174 128 116 56 q 141 56 179 73 q 214 91 250 109 q 267 107 267 78 z"},"B":{"x_min":0,"x_max":579,"ha":579,"o":"m 578 366 q 534 327 368 213 q 228 117 147 31 q 116 -3 110 -76 q 109 -84 107 -218 q 106 -209 83 -88 q 67 -5 67 12 q 67 19 91 33 q 120 49 134 71 q 157 106 157 164 q 157 209 150 319 q 140 467 126 547 q 32 527 32 445 q 32 426 38 383 q 45 340 45 320 q 45 300 41 285 q 41 301 28 351 q 15 401 15 412 l 1 555 q 98 577 272 602 q 426 624 455 624 q 488 624 516 610 q 511 578 438 528 q 328 453 326 452 q 343 449 370 449 q 381 449 404 450 q 428 450 440 450 q 536 450 578 416 q 582 380 578 366 z m 416 564 q 366 571 320 571 q 243 571 176 552 l 171 423 q 231 443 306 491 q 361 527 416 564 z m 515 409 q 498 409 452 416 q 407 422 393 422 q 343 422 288 410 q 215 394 182 363 l 182 131 q 281 193 380 255 q 510 345 515 409 z"},"K":{"x_min":0,"x_max":357,"ha":357,"o":"m 338 639 q 309 580 226 502 q 148 435 71 369 q 105 337 135 265 q 162 204 166 168 q 181 48 191 8 q 223 -122 284 -131 q 295 -133 311 -124 q 324 -116 337 -109 q 323 -230 311 -357 q 303 -332 302 -281 q 301 -233 297 -224 q 281 -188 227 -112 q 179 -44 164 0 q 149 44 144 120 q 139 203 131 234 q 115 294 69 335 q 49 268 49 192 q 49 130 63 15 q 60 26 8 187 q 8 196 22 220 q 37 245 37 258 q 38 291 46 377 q 54 457 54 491 q 54 544 40 558 q 67 587 117 631 q 95 597 89 527 q 79 410 77 403 q 141 445 232 576 q 250 583 267 591 q 308 612 338 639 z"},"R":{"x_min":0,"x_max":411,"ha":411,"o":"m 143 590 q 139 375 142 218 q 143 113 143 112 q 139 75 129 0 q 130 55 111 144 q 110 149 102 160 q 94 172 94 181 q 94 186 109 221 q 124 256 126 274 q 126 355 125 435 q 126 566 143 590 z m 480 -85 q 475 -152 458 -278 q 456 -244 446 -179 q 440 -154 410 -121 q 365 -69 360 -64 q 338 -33 321 15 q 287 121 252 227 q 206 358 152 429 q 155 432 258 512 q 345 580 345 593 q 345 619 294 619 q 270 619 204 605 q 118 588 86 566 q 44 536 24 465 q 8 408 10 342 q 5 364 3 382 q -2 435 -2 566 q 122 606 329 638 l 402 631 q 406 602 351 562 q 305 532 260 501 q 249 492 228 464 q 206 436 189 422 q 223 368 247 300 q 247 298 285 178 q 325 48 338 18 q 388 -97 445 -97 q 454 -97 462 -93 q 476 -86 480 -85 z"},"T":{"x_min":0,"x_max":542,"ha":542,"o":"m 592 728 q 587 700 574 651 q 525 641 409 603 q 349 584 290 565 q 284 294 281 195 q 273 -16 260 -148 q 260 -63 214 96 q 214 106 229 122 q 244 138 244 146 q 260 391 260 444 q 260 503 255 555 q 205 547 154 539 q 103 525 59 466 q 42 443 32 386 q 26 338 20 290 q 20 412 21 389 q 18 454 0 511 q 58 532 202 569 q 343 605 413 631 q 526 672 592 728 z"},"P":{"x_min":0,"x_max":700,"ha":700,"o":"m 673 640 q 673 616 578 558 q 494 506 444 489 q 373 465 315 428 q 300 419 279 374 q 263 340 248 305 l 249 429 q 292 456 390 490 q 487 525 523 547 q 585 586 595 644 q 552 673 485 673 q 414 673 255 621 q 223 484 221 392 q 218 257 215 165 q 213 94 213 92 q 213 10 239 -169 q 218 -47 175 60 q 166 68 158 77 q 143 92 143 105 q 143 114 167 152 q 191 191 192 210 q 201 341 201 376 q 201 481 178 567 q 180 570 201 576 q 218 580 218 596 q 218 604 215 614 q 107 599 57 511 q 17 441 21 347 l 5 336 l 5 559 q 37 595 234 644 q 432 692 543 692 q 584 692 621 682 q 673 667 673 640 z"},"|":{"x_min":0,"x_max":259,"ha":259,"o":"m 92 -210 l 92 728 l 168 728 l 168 -210 z"},"t":{"x_min":0,"x_max":304,"ha":304,"o":"m 328 440 q 328 436 324 418 q 319 399 319 394 q 213 376 164 347 l 164 18 q 165 -29 165 -77 q 167 -163 177 -218 q 162 -203 140 -123 q 117 -39 87 0 q 117 27 129 81 q 137 128 145 175 l 138 355 q 61 318 2 257 l 2 343 q 72 345 102 355 q 155 373 155 422 q 155 434 136 522 q 116 609 116 621 q 116 634 146 669 q 187 717 191 722 q 179 677 174 604 q 167 500 165 485 l 173 387 q 196 388 243 407 q 315 436 328 440 z"},"M":{"x_min":0,"x_max":567,"ha":567,"o":"m 553 736 q 492 636 473 556 q 457 494 457 382 q 457 186 504 47 q 507 37 528 9 q 546 -17 546 -25 q 546 -34 532 -106 q 517 -187 513 -218 q 511 -128 469 55 q 428 233 428 319 q 428 334 441 440 q 455 557 467 620 q 402 563 355 465 q 327 407 290 294 q 276 440 261 523 q 253 507 176 328 q 126 211 66 125 q 49 100 43 22 q 37 -76 31 -99 q 31 -57 25 11 q 17 112 14 159 q 35 159 44 161 q 132 263 181 393 q 202 450 245 617 q 257 629 285 656 q 285 506 293 404 q 297 404 300 398 q 302 393 305 390 q 363 521 401 588 q 413 610 446 650 q 480 691 490 706 q 500 722 553 736 z"},"g":{"x_min":0,"x_max":269,"ha":269,"o":"m 257 279 q 258 269 235 238 q 212 208 210 188 q 207 154 210 60 q 212 -21 204 -67 q 194 -122 149 -211 q 77 -350 72 -362 q 34 -449 34 -516 q 34 -539 39 -561 q 32 -492 26 -424 q 16 -338 -6 -288 q 91 -251 131 -188 q 158 -145 166 -65 q 177 36 187 67 l 181 133 q 163 89 133 51 q 93 0 60 0 q 28 0 13 34 q 4 54 4 71 q 4 123 58 194 q 111 265 152 265 q 164 265 174 260 q 184 254 200 254 q 218 311 257 347 z m 187 233 l 130 233 q 83 207 60 163 q 36 119 41 71 q 52 68 62 68 q 109 68 141 126 q 147 136 187 233 z"},"j":{"x_min":0,"x_max":146,"ha":146,"o":"m 119 65 q 112 30 89 -40 q 70 -95 52 -149 q 31 -218 30 -315 q 29 -417 20 -451 q 20 -399 8 -292 q -6 -159 -9 -119 q 41 -101 66 -39 q 79 9 93 58 l 86 259 q 63 256 51 213 q 44 184 38 155 q 31 184 16 239 q 49 264 108 309 z m 123 430 q 117 411 110 380 q 103 349 96 329 q 85 340 74 351 q 62 367 62 387 q 62 406 82 414 q 103 423 123 430 z"},"i":{"x_min":0,"x_max":107,"ha":107,"o":"m 99 427 q 95 413 84 382 q 74 351 70 337 q 46 361 46 378 q 46 401 99 427 z m 49 -223 q 56 -184 56 -150 q 56 -63 10 9 q 38 30 55 82 l 49 219 q 42 217 34 205 q 25 193 20 193 l 20 253 q 37 261 81 282 q 81 192 82 88 q 84 -15 84 -36 q 84 -111 78 -144 q 71 -178 49 -223 z"},"y":{"x_min":0,"x_max":273,"ha":273,"o":"m 241 303 q 241 275 245 191 q 248 120 248 77 q 248 -32 230 -108 q 223 -134 184 -182 q 138 -238 124 -267 q 99 -317 88 -406 q 79 -490 71 -573 q 71 -466 44 -193 q 152 -195 189 -124 q 214 -76 214 38 q 214 47 214 64 q 214 81 214 90 q 214 155 220 191 q 170 126 69 0 q 71 103 37 213 q 30 202 2 135 q 2 145 -11 172 q -24 200 -24 210 q -12 216 15 241 q 46 269 62 280 q 68 246 78 174 q 89 101 95 67 q 183 185 241 303 z"},"@":{"x_min":0,"x_max":506,"ha":506,"o":"m 478 417 q 442 218 401 -6 q 368 -138 363 -200 q 360 -181 360 -155 q 360 -137 362 -97 q 365 -57 365 -36 q 365 64 321 129 q 310 123 280 85 q 248 44 226 27 q 190 -2 154 1 q 144 1 132 16 q 121 31 121 47 q 121 119 307 188 q 302 219 285 300 q 209 296 158 243 q 107 190 105 119 q 105 209 91 271 q 208 279 303 355 q 300 169 382 92 q 386 88 403 183 q 420 289 424 374 q 429 386 344 416 q 268 443 216 453 q 199 457 121 348 q 45 243 -1 156 q -2 153 -2 149 q -2 114 104 -12 q 210 -137 213 -130 q 212 -133 84 -10 q -45 114 -34 139 q 7 233 90 364 q 173 496 191 495 q 266 490 378 454 q 460 427 478 417 z m 284 143 q 257 148 199 110 q 141 72 141 42 q 141 18 156 16 q 197 45 238 74 q 289 114 284 143 z"},".":{"x_min":0,"x_max":107,"ha":107,"o":"m 82 90 q 78 76 68 45 q 58 14 53 0 q 29 24 29 41 q 29 63 82 90 z"},"p":{"x_min":0,"x_max":313,"ha":313,"o":"m 301 90 l 300 -5 q 292 -6 284 -6 q 246 -6 197 28 q 158 56 118 85 q 84 -194 84 -217 q 84 -245 97 -345 q 113 -456 130 -544 q 108 -490 85 -400 q 60 -306 47 -271 q 21 -206 -19 -166 q 55 -84 76 28 q 90 99 86 252 q 67 243 33 204 q -8 155 -16 149 l -16 223 q 13 224 47 255 q 81 286 104 328 q 110 302 110 250 q 111 199 118 174 q 144 194 176 233 q 208 272 225 284 q 255 307 299 312 q 278 283 278 240 q 278 213 288 164 q 300 109 301 90 z m 261 28 q 261 173 246 251 q 226 231 182 181 q 137 131 122 116 q 152 86 197 57 q 242 28 261 28 z"},"X":{"x_min":0,"x_max":426,"ha":426,"o":"m 445 732 q 419 667 369 551 q 349 509 289 420 q 238 344 238 334 q 238 274 319 184 q 359 143 400 103 q 397 69 405 -108 q 394 -103 377 -24 q 358 68 346 93 q 330 127 279 199 q 230 267 212 308 q 85 215 85 54 q 85 24 90 -6 q 75 72 46 213 q 90 241 134 269 q 201 314 201 335 q 201 343 184 390 q 168 438 164 459 q 161 515 149 642 q 71 577 49 507 q 38 446 26 386 q 27 409 17 458 q 1 542 0 546 q 92 612 168 688 q 164 491 214 354 q 273 400 315 506 q 340 577 364 648 q 407 666 445 732 z"},"*":{"x_min":0,"x_max":561,"ha":561,"o":"m 505 103 q 428 214 313 240 q 317 261 287 321 l 282 311 q 258 262 263 228 q 148 202 72 91 q 92 154 120 190 q 148 226 264 340 l 193 416 q 190 409 192 394 q 194 380 191 377 l 148 419 q 155 437 171 483 q 214 444 292 372 q 327 400 405 471 q 413 448 428 407 l 386 365 q 383 368 385 382 q 387 397 384 404 l 319 343 q 428 236 456 200 q 485 164 505 103 z m 275 72 l 273 559 l 305 365 z"},"Y":{"x_min":0,"x_max":354,"ha":354,"o":"m 350 714 q 341 598 332 483 q 319 343 295 254 q 287 221 248 136 q 206 43 193 2 q 179 -43 169 -261 q 150 -170 123 58 q 212 104 256 216 q 286 294 299 426 q 314 584 319 603 q 288 586 225 458 q 155 314 110 266 q 108 371 95 571 q 80 543 62 456 q 43 364 30 335 q 32 350 32 364 q 32 405 16 444 q 0 483 0 484 q 0 492 48 556 q 102 628 116 655 q 119 559 135 342 q 210 475 350 714 z"},"c":{"x_min":0,"x_max":236,"ha":236,"o":"m 216 152 q 214 54 211 -32 q 207 -106 207 -109 q 198 -47 179 80 q 58 -24 16 -16 q 16 -14 10 4 q 3 23 3 37 q 3 77 55 308 q 70 332 118 342 l 120 193 q 114 198 104 226 q 93 254 84 266 q 35 128 35 69 q 35 62 33 51 q 32 43 33 37 q 35 29 42 15 q 75 35 129 80 q 173 116 216 152 z"},"!":{"x_min":0,"x_max":107,"ha":107,"o":"m 85 -56 q 81 -70 71 -101 q 61 -132 56 -146 q 32 -122 32 -105 q 32 -83 85 -56 z m 2 800 q 18 745 30 642 q 37 560 45 478 q 47 457 41 347 q 34 219 34 159 q 34 52 51 28 q 54 78 58 128 q 69 191 113 227 q 64 306 64 506 q 64 550 66 627 q 69 698 68 724 q 68 734 44 759 q 23 780 2 800 z"},"/":{"x_min":0,"x_max":331,"ha":331,"o":"m 313 673 q 300 616 259 522 q 224 447 189 372 q 188 369 68 179 q -34 19 -31 -20 q -2 21 26 63 q 67 112 123 121 q 120 207 205 360 q 269 467 333 573 q 335 577 335 584 q 335 597 327 626 q 320 649 313 673 z"},"[":{"x_min":0,"x_max":368,"ha":368,"o":"m 368 16 q 354 -57 331 -206 q 334 -187 334 -169 q 334 -49 241 -49 q 184 -49 102 -82 q 20 -115 8 -145 q 19 -46 31 54 q 47 195 48 252 q 50 394 50 530 q 49 626 48 718 q 46 806 46 800 q 46 800 175 829 q 314 859 352 873 q 185 796 135 669 q 104 590 99 373 q 92 120 54 -51 q 114 -48 209 -25 q 288 -5 368 16 z"},"6":{"x_min":0,"x_max":358,"ha":358,"o":"m 99 249 q 100 249 166 282 q 213 305 235 305 q 331 305 331 222 q 331 148 225 68 q 124 -6 49 -6 q 4 -6 4 63 q 4 98 18 156 q 31 215 48 245 q 98 341 201 430 q 304 520 391 547 q 305 511 218 415 q 148 338 99 249 z m 231 263 q 181 263 99 227 q 45 124 45 75 q 45 50 64 50 q 71 50 81 53 q 145 73 206 119 q 281 175 281 227 q 281 263 231 263 z"},"r":{"x_min":0,"x_max":289,"ha":289,"o":"m 275 245 q 275 248 272 206 q 269 164 269 71 q 269 60 244 -4 q 244 176 202 223 l 246 226 q 246 252 244 258 q 242 263 224 292 q 198 271 172 250 q 146 229 141 203 q 119 98 87 -277 q 89 -265 89 -251 q 89 -179 35 0 q 81 15 106 68 l 106 293 q 43 249 4 170 q -16 202 -12 244 q 17 258 61 292 q 98 321 135 350 q 135 339 142 314 q 148 288 148 273 q 171 276 208 311 q 244 346 252 349 q 252 322 264 288 q 275 255 275 245 z"},"2":{"x_min":0,"x_max":433,"ha":433,"o":"m 17 0 q 260 6 276 0 q 379 -35 394 -129 q 399 -160 418 -266 q 418 -125 430 29 l 433 58 q 419 39 384 39 q 375 39 355 34 q 335 30 326 30 q 297 30 152 27 q 235 57 294 95 q 435 187 435 302 q 435 362 390 395 q 356 419 295 430 q 254 436 213 442 q 194 446 127 449 q 64 452 25 462 q 79 419 79 336 q 79 321 77 309 q 64 381 133 405 q 170 418 258 418 q 320 418 351 400 q 366 391 377 368 q 388 344 388 326 q 388 235 203 108 q 125 56 17 0 z"},"{":{"x_min":0,"x_max":333,"ha":333,"o":"m 28 299 q 65 300 89 319 q 113 338 120 372 q 128 406 128 488 q 129 569 132 595 q 136 636 148 661 q 160 686 178 700 q 195 715 223 723 q 241 728 283 728 l 311 728 l 311 651 l 295 651 q 245 651 228 633 q 211 615 211 551 q 211 423 206 390 q 197 337 176 309 q 155 281 109 259 q 163 236 187 190 q 211 144 211 39 q 211 -56 213 -74 q 217 -107 233 -120 q 249 -134 295 -134 l 311 -134 l 311 -210 l 283 -210 q 235 -210 214 -203 q 183 -191 162 -166 q 142 -141 136 -102 q 129 -64 128 24 q 128 112 120 146 q 113 179 89 198 q 65 218 28 219 z"},"9":{"x_min":0,"x_max":433,"ha":433,"o":"m 240 458 q 316 551 344 586 q 392 646 393 653 q 394 660 394 664 q 394 678 370 678 q 313 678 230 651 q 112 614 112 553 q 112 458 240 458 z m 279 436 z m 65 534 q 65 595 129 641 q 176 675 252 699 q 290 709 328 719 q 373 734 400 734 q 443 734 443 698 q 443 627 305 465 q 229 380 162 271 q 152 253 75 114 q 36 45 14 32 q 57 110 120 260 q 164 365 218 432 q 175 429 167 429 q 124 429 93 465 q 65 498 65 534 z"}," ":{"x_min":0,"x_max":309,"ha":309,"o":""},"I":{"x_min":0,"x_max":507,"ha":507,"o":"m 515 136 q 501 131 337 105 q 202 84 134 38 q 36 -29 33 -162 q 26 -84 10 64 q 122 80 184 113 l 226 536 q 226 594 206 594 q 193 594 124 560 q 56 526 51 515 q 46 504 23 412 q 23 413 20 430 q 16 448 13 476 q 10 517 10 579 q 189 622 523 692 q 520 685 412 659 q 294 632 255 600 q 243 450 226 130 q 238 114 273 114 q 292 114 381 127 q 462 139 515 136 z"},"H":{"x_min":0,"x_max":573,"ha":573,"o":"m 571 451 q 553 394 521 309 q 526 329 526 344 q 526 403 460 403 q 421 403 371 384 q 375 356 375 320 q 376 297 375 252 q 374 200 374 176 q 374 126 387 22 q 400 -82 400 -132 q 390 -91 378 -57 q 349 27 318 66 q 319 71 323 116 q 326 150 337 166 l 322 380 q 211 384 164 339 q 125 302 125 223 q 125 176 144 70 q 163 -37 163 -86 q 163 -118 158 -144 q 150 -78 139 -28 q 112 92 67 115 q 67 118 88 159 q 109 200 112 267 q 116 345 116 408 q 116 499 108 559 q 101 619 101 615 q 101 632 143 677 q 177 710 211 743 q 190 697 169 603 q 146 503 146 440 q 146 389 154 372 q 182 378 242 396 q 303 413 331 419 q 341 485 341 539 q 341 600 328 623 q 339 647 372 682 q 409 721 437 733 q 372 627 372 509 q 372 467 382 427 q 394 423 413 423 q 459 423 571 451 z"},"4":{"x_min":0,"x_max":345,"ha":345,"o":"m 307 694 q 283 595 267 352 q 267 347 299 299 q 331 251 331 246 q 331 245 330 245 q 326 245 297 269 q 268 293 264 293 q 263 293 263 292 q 261 257 259 234 q 257 203 265 97 q 274 -25 274 -78 q 274 -167 256 -200 q 252 -128 247 -56 q 236 34 187 85 q 210 171 210 233 q 210 333 147 376 q 101 408 0 416 q 82 488 144 542 q 290 672 307 694 z m 250 583 l 63 436 l 178 425 l 241 390 z"},"~":{"x_min":0,"x_max":328,"ha":328,"o":"m 139 470 q 87 472 -11 399 l 120 523 q 123 509 168 484 q 214 458 233 459 q 252 460 338 523 l 241 406 q 250 466 139 470 z"},"D":{"x_min":0,"x_max":478,"ha":478,"o":"m 143 479 q 136 395 129 312 q 119 208 90 173 l 91 375 q 95 477 104 617 l 141 608 z m 477 627 q 470 588 408 523 q 330 442 318 424 q 264 346 209 268 q 141 164 123 84 q 119 66 119 36 q 119 6 124 -60 q 130 -126 130 -151 q 123 -111 96 6 q 73 102 73 114 q 73 117 149 222 q 239 347 276 403 q 283 413 367 505 q 423 566 421 609 q 395 631 348 635 q 350 635 270 635 q 138 635 101 628 q 1 609 8 535 q 8 579 -3 663 q 22 648 75 648 q 110 648 183 657 q 256 666 282 666 q 348 666 369 663 q 412 656 477 627 z"},"^":{"x_min":0,"x_max":328,"ha":328,"o":"m 33 621 l 158 742 l 208 667 l 279 595 l 179 667 l 158 699 z"},"0":{"x_min":0,"x_max":336,"ha":336,"o":"m 125 154 q 133 179 240 483 q 264 416 279 319 q 290 248 290 219 q 290 38 223 38 q 172 38 125 154 z m 216 538 q 155 311 108 199 q 89 258 74 325 q 62 381 62 396 q 62 454 78 515 q 100 599 140 599 q 182 599 216 538 z m 240 618 l 244 644 l 224 567 q 177 640 124 640 q 55 640 25 523 q 10 460 10 401 q 10 374 25 299 q 46 201 75 130 q 55 95 36 80 q 70 34 87 -4 q 92 30 103 74 q 148 -4 202 -4 q 272 -4 307 71 q 332 126 332 193 q 332 236 312 327 q 287 438 251 516 q 258 537 263 553 z"},"F":{"x_min":0,"x_max":516,"ha":516,"o":"m 622 760 q 622 684 619 631 q 616 595 613 572 q 610 548 610 549 q 603 562 600 604 q 598 646 590 663 q 576 690 538 690 q 478 690 315 636 q 170 588 149 573 q 164 503 164 419 q 202 415 236 415 q 333 415 369 446 l 371 332 q 348 397 306 397 q 196 397 167 357 q 149 333 149 246 q 149 161 178 -99 q 170 -83 155 -27 q 139 36 127 66 q 107 117 78 139 q 125 190 125 413 q 125 473 120 576 q 114 577 109 577 q 62 577 0 468 l 0 577 q 124 608 310 665 q 466 712 622 760 z"},"`":{"x_min":0,"x_max":84,"ha":84,"o":"m 52 566 q 51 580 52 664 q 53 748 52 762 q 45 698 29 657 q 19 636 10 615 q 5 593 52 566 z"},"k":{"x_min":0,"x_max":241,"ha":241,"o":"m 223 -166 q 223 -208 200 -255 q 201 -191 175 -64 q 164 -33 145 33 q 171 58 171 103 q 171 145 150 192 q 128 239 95 272 q 87 149 78 25 q 68 -126 68 -228 q 57 -176 46 -125 q 29 -42 0 0 q 55 51 64 108 q 65 159 66 209 l 79 632 q 64 609 50 530 q 41 472 32 415 q 25 427 19 488 q 13 541 13 565 q 13 578 50 630 q 101 701 108 712 q 108 692 100 642 q 93 592 93 584 l 89 315 q 114 318 137 348 q 151 368 165 388 q 196 357 196 331 l 196 265 q 186 254 173 254 q 168 254 158 256 q 147 259 143 259 q 138 259 134 257 q 179 182 193 107 q 204 50 214 -53 q 223 -143 223 -166 z m 168 282 l 168 343 q 126 303 126 291 q 131 291 148 286 q 164 282 168 282 z"},"u":{"x_min":0,"x_max":380,"ha":380,"o":"m 379 6 q 356 -24 315 -190 q 308 -128 301 0 q 294 134 287 199 q 252 132 205 70 q 147 -6 123 0 q 112 3 112 35 q 112 49 116 97 q 119 145 119 174 q 119 246 101 290 q 83 281 66 264 q 27 225 5 159 q 2 194 -12 249 q 9 262 28 275 q 74 306 99 331 q 132 313 135 230 q 139 115 156 65 q 295 204 315 346 q 330 313 330 79 q 330 68 379 6 z"},"]":{"x_min":0,"x_max":368,"ha":368,"o":"m 8 651 q 21 724 44 873 q 42 854 42 836 q 42 716 135 716 q 191 716 274 749 q 356 782 368 812 q 357 713 345 613 q 329 472 328 415 q 326 273 326 137 q 326 41 328 -51 q 330 -139 330 -133 q 330 -133 201 -162 q 62 -192 24 -206 q 191 -129 241 -2 q 271 77 277 294 q 283 547 322 718 q 262 715 167 692 q 87 672 8 651 z"},"U":{"x_min":0,"x_max":484,"ha":484,"o":"m 446 -1 q 430 -77 405 -235 q 400 -168 381 -16 q 364 123 364 132 q 364 140 376 264 q 389 406 395 490 q 341 342 288 195 q 212 -1 178 -1 q 146 -1 121 212 q 106 356 91 499 q 9 464 9 306 q 9 280 11 242 q -9 332 -58 441 q -19 444 31 497 q 70 539 108 581 q 124 432 139 283 q 157 103 178 84 q 187 76 276 270 q 406 553 425 590 q 391 306 391 201 q 391 120 421 46 q 424 39 446 -1 z"},"o":{"x_min":0,"x_max":238,"ha":238,"o":"m 219 265 q 221 262 221 250 q 221 164 193 80 q 153 -43 76 -43 q 2 -43 2 99 q 2 158 31 218 q 73 303 153 303 q 173 303 188 293 q 194 289 219 265 z m 196 186 q 196 204 189 232 q 182 261 182 264 q 94 256 53 190 q 27 146 27 92 q 27 2 83 -6 q 124 21 160 84 q 196 147 196 186 z"},"N":{"x_min":0,"x_max":566,"ha":566,"o":"m 763 893 q 741 819 735 663 q 726 710 713 731 q 700 752 673 752 q 652 752 612 717 q 580 689 562 665 q 435 497 387 300 q 350 152 350 -64 q 309 98 250 414 q 225 342 165 225 q 104 104 81 44 q 42 -63 37 -173 q 39 -136 26 -58 q 13 16 0 90 q 80 106 133 193 q 169 252 205 373 q 244 506 260 539 q 267 511 280 403 q 292 308 315 236 q 317 230 319 230 q 321 230 323 233 q 331 334 418 501 q 453 569 573 703 q 685 828 763 893 z"},"+":{"x_min":0,"x_max":561,"ha":561,"o":"m 535 300 q 496 307 462 307 q 375 307 302 261 q 290 278 226 300 l 230 289 q 247 238 275 217 q 230 144 230 58 q 230 24 237 -15 q 203 53 197 137 q 195 156 197 297 l 93 300 q 95 293 107 284 q 119 276 119 271 l 58 271 q 51 288 30 333 q 68 333 122 336 q 175 339 194 339 q 194 358 199 408 q 204 457 204 490 q 226 479 265 461 l 265 401 q 261 401 252 412 q 243 424 236 427 l 233 338 q 364 340 387 338 q 471 332 535 300 z"},"G":{"x_min":0,"x_max":437,"ha":437,"o":"m 423 495 q 340 259 340 76 q 340 74 352 -35 q 363 -147 364 -207 q 352 -191 347 -141 q 341 -77 333 -51 q 318 1 278 30 q 333 195 342 342 q 284 324 203 274 q 165 251 23 156 l 23 251 q 22 329 78 467 q 141 621 210 660 q 223 668 267 678 q 318 690 339 698 q 306 633 297 559 q 290 563 282 587 q 271 622 267 629 q 173 606 109 476 q 53 361 53 244 q 53 224 55 207 q 102 244 205 302 q 325 370 365 398 q 375 404 382 423 q 388 438 394 454 q 351 455 296 437 q 241 419 205 395 q 203 429 205 438 q 236 450 309 465 q 386 482 423 495 z"},"q":{"x_min":0,"x_max":306,"ha":306,"o":"m 339 -275 q 339 -292 304 -381 q 258 -500 253 -517 q 267 -464 267 -396 q 267 -197 164 67 q 146 44 109 20 q 77 0 69 0 q 30 0 12 48 q 2 76 2 101 q 2 157 57 248 q 118 348 176 348 q 200 348 222 303 q 243 317 266 342 q 284 362 301 382 q 301 379 308 352 q 314 324 314 305 q 308 306 302 306 q 215 306 215 79 q 215 63 214 40 q 213 18 213 10 q 213 -50 274 -183 q 277 -191 310 -228 q 339 -261 339 -275 z m 204 247 q 204 277 177 303 q 112 290 71 219 q 35 156 35 90 q 35 59 62 23 q 95 36 146 107 q 204 188 204 247 z"},"d":{"x_min":0,"x_max":302,"ha":302,"o":"m 315 660 q 290 610 265 560 q 233 493 227 457 q 213 359 213 227 q 213 164 227 88 q 231 66 270 19 q 253 -1 241 -31 q 211 -103 208 -211 q 207 -124 206 -37 q 202 74 184 137 q 145 96 93 52 q 32 2 16 3 q 0 19 0 53 q 0 109 46 196 q 96 291 151 309 l 182 304 q 205 330 205 370 q 205 386 200 423 q 194 460 194 481 q 194 512 204 539 z m 191 227 q 191 247 174 260 q 157 272 138 272 q 85 215 61 170 q 30 112 25 37 q 77 71 131 128 q 191 193 191 227 z"},"1":{"x_min":0,"x_max":161,"ha":161,"o":"m 43 705 q 44 700 44 690 q 44 647 21 539 q 22 536 24 536 q 26 536 38 547 q 50 558 56 558 q 62 558 64 549 q 77 499 83 394 q 87 319 91 245 q 93 214 85 107 q 76 -14 76 -67 q 76 -156 94 -189 q 98 -118 103 -46 q 114 44 163 95 q 110 204 110 360 q 110 397 114 478 q 118 554 117 596 q 117 611 90 647 q 66 676 43 705 z"},"5":{"x_min":0,"x_max":433,"ha":433,"o":"m 0 538 q 185 547 388 562 l 433 369 q 419 403 406 438 q 382 499 367 499 q 358 499 338 504 q 318 508 309 508 q 280 508 135 511 q 218 454 277 397 q 418 259 418 144 q 418 84 373 51 q 339 27 278 16 q 237 10 196 4 q 163 0 131 -5 q 83 -13 54 -30 q 14 -54 0 -99 l 0 54 q -2 45 63 36 q 128 27 199 27 q 301 27 334 46 q 349 55 360 78 q 371 102 371 120 q 371 256 0 538 z"}}}
